ffmpeg version 3.4.8-0ubuntu0.2 Copyright (c) 2000-2020 the FFmpeg developers
  built with gcc 7 (Ubuntu 7.5.0-3ubuntu1~18.04)
  configuration: --prefix=/usr --extra-version=0ubuntu0.2 --toolchain=hardened --libdir=/usr/lib/x86_64-linux-gnu --incdir=/usr/include/x86_64-linux-gnu --enable-gpl --disable-stripping --enable-avresample --enable-avisynth --enable-gnutls --enable-ladspa --enable-libass --enable-libbluray --enable-libbs2b --enable-libcaca --enable-libcdio --enable-libflite --enable-libfontconfig --enable-libfreetype --enable-libfribidi --enable-libgme --enable-libgsm --enable-libmp3lame --enable-libmysofa --enable-libopenjpeg --enable-libopenmpt --enable-libopus --enable-libpulse --enable-librubberband --enable-librsvg --enable-libshine --enable-libsnappy --enable-libsoxr --enable-libspeex --enable-libssh --enable-libtheora --enable-libtwolame --enable-libvorbis --enable-libvpx --enable-libwavpack --enable-libwebp --enable-libx265 --enable-libxml2 --enable-libxvid --enable-libzmq --enable-libzvbi --enable-omx --enable-openal --enable-opengl --enable-sdl2 --enable-libdc1394 --enable-libdrm --enable-libiec61883 --enable-chromaprint --enable-frei0r --enable-libopencv --enable-libx264 --enable-shared
  libavutil      55. 78.100 / 55. 78.100
  libavcodec     57.107.100 / 57.107.100
  libavformat    57. 83.100 / 57. 83.100
  libavdevice    57. 10.100 / 57. 10.100
  libavfilter     6.107.100 /  6.107.100
  libavresample   3.  7.  0 /  3.  7.  0
  libswscale      4.  8.100 /  4.  8.100
  libswresample   2.  9.100 /  2.  9.100
  libpostproc    54.  7.100 / 54.  7.100
[rawvideo @ 0x564781046a20] Estimating duration from bitrate, this may be inaccurate
Input #0, rawvideo, from '../../SVC-Encoder-20220109T061506Z-001/SVC-Encoder/Dataset/RollerCoaster/6f_2x2/tile_yuv/f4_t2_480x480.yuv':
  Duration: 00:00:10.00, start: 0.000000, bitrate: 82944 kb/s
    Stream #0:0: Video: rawvideo (I420 / 0x30323449), yuv420p, 480x480, 82944 kb/s, 30 tbr, 30 tbn, 30 tbc
Stream mapping:
  Stream #0:0 -> #0:0 (rawvideo (native) -> h264 (libx264))
Press [q] to stop, [?] for help
[libx264 @ 0x564781053c60] using cpu capabilities: MMX2 SSE2Fast LZCNT SSSE3 SSE4.2 AVX
[libx264 @ 0x564781053c60] profile High, level 3.0
Output #0, rawvideo, to 'RollerCoaster_f4_t2_480x480_x264_QP_28.h264':
  Metadata:
    encoder         : Lavf57.83.100
    Stream #0:0: Video: h264 (libx264), yuv420p, 480x480, q=-1--1, 30 fps, 30 tbn, 30 tbc
    Metadata:
      encoder         : Lavc57.107.100 libx264
    Side data:
      cpb: bitrate max/min/avg: 0/0/0 buffer size: 0 vbv_delay: -1
frame=  110 fps=0.0 q=34.0 PSNR=Y:nan U:nan V:nan *:nan size=     125kB time=00:00:02.23 bitrate= 458.5kbits/s speed=4.44x    frame=  184 fps=182 q=34.0 PSNR=Y:nan U:nan V:nan *:nan size=     246kB time=00:00:04.70 bitrate= 429.2kbits/s speed=4.66x    frame=  256 fps=169 q=34.0 PSNR=Y:nan U:nan V:nan *:nan size=     256kB time=00:00:07.10 bitrate= 295.4kbits/s speed=4.69x    frame=  300 fps=147 q=34.0 LPSNR=Y:inf U:inf V:inf *:inf size=     506kB time=00:00:09.93 bitrate= 417.4kbits/s speed=4.86x    
video:506kB audio:0kB subtitle:0kB other streams:0kB global headers:0kB muxing overhead: 0.000000%
[libx264 @ 0x564781053c60] frame I:2     Avg QP:26.30  size: 26714  PSNR Mean Y:39.77 U:45.83 V:47.22 Avg:41.09 Global:41.02
[libx264 @ 0x564781053c60] frame P:76    Avg QP:28.07  size:  4984  PSNR Mean Y:37.62 U:45.32 V:46.56 Avg:39.06 Global:39.00
[libx264 @ 0x564781053c60] frame B:222   Avg QP:33.44  size:   388  PSNR Mean Y:37.13 U:45.22 V:46.51 Avg:38.60 Global:38.58
[libx264 @ 0x564781053c60] consecutive B-frames:  1.3%  0.0%  0.0% 98.7%
[libx264 @ 0x564781053c60] mb I  I16..4:  8.7% 75.0% 16.3%
[libx264 @ 0x564781053c60] mb P  I16..4:  0.2%  0.2%  0.0%  P16..4: 38.0% 21.8% 14.4%  0.0%  0.0%    skip:25.4%
[libx264 @ 0x564781053c60] mb B  I16..4:  0.0%  0.0%  0.0%  B16..8: 30.1%  2.1%  0.1%  direct: 0.1%  skip:67.6%  L0:31.3% L1:60.4% BI: 8.3%
[libx264 @ 0x564781053c60] 8x8 transform intra:71.2% inter:60.1%
[libx264 @ 0x564781053c60] coded y,uvDC,uvAC intra: 75.8% 74.0% 24.5% inter: 8.4% 4.1% 0.0%
[libx264 @ 0x564781053c60] i16 v,h,dc,p: 15% 28% 30% 27%
[libx264 @ 0x564781053c60] i8 v,h,dc,ddl,ddr,vr,hd,vl,hu:  7% 15% 18%  7%  8%  5% 13% 17%  9%
[libx264 @ 0x564781053c60] i4 v,h,dc,ddl,ddr,vr,hd,vl,hu:  8% 15% 11%  9% 10%  6% 17% 17%  7%
[libx264 @ 0x564781053c60] i8c dc,h,v,p: 45% 24% 14% 18%
[libx264 @ 0x564781053c60] Weighted P-Frames: Y:1.3% UV:0.0%
[libx264 @ 0x564781053c60] ref P L0: 67.1% 18.0% 13.2%  1.7%  0.0%
[libx264 @ 0x564781053c60] ref B L0: 94.9%  4.8%  0.3%
[libx264 @ 0x564781053c60] ref B L1: 94.1%  5.9%
[libx264 @ 0x564781053c60] PSNR Mean Y:37.268 U:45.250 V:46.531 Avg:38.736 Global:38.696 kb/s:414.63
